# xmcd
#
# Track frame offsets: 
#        150
#        11652
#        24467
#        35284
#        45951
#        58735
#        72290
#        85273
#        97966
#        108307
#        122935
#        133888
#        145173
#        158299
#        171726
#        185223
#        199062
#        213597
#        226933
#        236800
#        251209
#        262871
#        276140
#        289628
#        302767
#        314812
#        328337
#
# Disc length: 4517 seconds
#
# Revision: 0
# Processed by: cddbd v1.5.2PL0 Copyright (c) Steve Scherf et al.
# Submitted via: ExactAudioCopy v1.0b1
#
DISCID=9511a31b
DTITLE=Chuck Willis  - The Complete Chuck Willis - Disc 1  
DYEAR=1900
DGENRE=
TTITLE0=Can't You See
TTITLE1=It Ain't Right to Treat Me Wrong
TTITLE2=Be Good or Be Gone
TTITLE3=Let's Jump Tonight
TTITLE4=I Rule My House
TTITLE5=I Tried (To Get Along with You)
TTITLE6=It's Too Late Baby
TTITLE7=Here I Come
TTITLE8=Loud Mouth Lucy
TTITLE9=My Story
TTITLE10=Caldonia
TTITLE11=Wrong Lake to Catch a Fish
TTITLE12=Salty Tears
TTITLE13=Going to the River
TTITLE14=Baby Have Left Me Again
TTITLE15=Don't Deceive Me (Please Don't Go)
TTITLE16=I've Been Treated Wrong Too Long
TTITLE17=When My Day Is Over
TTITLE18=My Baby's Coming Home
TTITLE19=You're Still My Baby
TTITLE20=What's Your Name
TTITLE21=I Feel so Bad
TTITLE22=Need One More Chance
TTITLE23=Change My Mind
TTITLE24=My Heart's Been Broken Again
TTITLE25=Give and Take
TTITLE26=I've Been Away Too Long
EXTD=
EXTT0=
EXTT1=
EXTT2=
EXTT3=
EXTT4=
EXTT5=
EXTT6=
EXTT7=
EXTT8=
EXTT9=
EXTT10=
EXTT11=
EXTT12=
EXTT13=
EXTT14=
EXTT15=
EXTT16=
EXTT17=
EXTT18=
EXTT19=
EXTT20=
EXTT21=
EXTT22=
EXTT23=
EXTT24=
EXTT25=
EXTT26=
PLAYORDER=
